<?xml version="1.0" encoding="utf-8"?>
<!-- Generator: Adobe Illustrator 21.0.0, SVG Export Plug-In . SVG Version: 6.00 Build 0)  -->
<svg version="1.1" id="Layer_1" xmlns="http://www.w3.org/2000/svg" xmlns:xlink="http://www.w3.org/1999/xlink" x="0px" y="0px"
	 viewBox="0 0 24 24" style="enable-background:new 0 0 24 24;" xml:space="preserve">
<style type="text/css">
	.st0{fill:#FFFFFF;}
</style>
<path class="st0" d="M15.9,1c-0.9,0-1.8,0.2-2.6,0.7L5.6,5.7v0c-1.8,0.9-2.9,2.8-2.9,4.8c0,1.3,0.6,2.5,1.4,3.5
	c-0.8,1-1.4,2.1-1.4,3.5c0,3,2.5,5.5,5.5,5.5c0.9,0,1.8-0.2,2.6-0.7l7.6-4l0,0c1.9-0.9,3.1-2.8,3.1-4.9c0-1.3-0.6-2.5-1.4-3.5
	c0.8-1,1.4-2.1,1.4-3.5C21.4,3.5,18.9,1,15.9,1z M15.9,3c1.9,0,3.5,1.6,3.5,3.5c0,1.1-0.5,2-1.3,2.7l-1,0.8l1,0.8
	c0.8,0.6,1.3,1.6,1.3,2.7c0,1.3-0.8,2.6-2,3.1l0,0l-7.6,4l0,0C9.3,20.9,8.7,21,8.1,21c-1.9,0-3.5-1.6-3.5-3.5c0-1.1,0.5-2,1.3-2.7
	l1-0.8l-1-0.8c-0.8-0.6-1.3-1.6-1.3-2.7c0-1.3,0.7-2.5,1.9-3.1h0l7.7-4.1l0,0C14.7,3.1,15.3,3,15.9,3z M10,9v6l5-3L10,9z"/>
</svg>
